<svg xmlns="http://www.w3.org/2000/svg" viewBox="0 0 64 64">
  <defs>
    <clipPath id="fvF"><rect x="-20" y="-60" width="160" height="98"/></clipPath>
    <clipPath id="fvB"><rect x="-20" y="-60" width="160" height="90"/></clipPath>
  </defs>
  <circle cx="32" cy="32" r="32" fill="#150d08"/>
  <g transform="translate(4.5 8) scale(0.44)">
    <path d="M16 90 L16 58 Q16 52.2 20.1 48.1 L40.1 28.1 Q44.2 24 50 24 L100 24 Q114 24 114 38 L114 70 Q114 75.8 109.9 79.9 L89.9 99.9 Q85.8 104 80 104 L30 104 Q16 104 16 90 Z" fill="#150d08" stroke="#f0c464" stroke-width="6.5" stroke-linejoin="round"/>
    <path d="M20.1 48.1 Q24.2 44 30 44 L80 44 Q94 44 94 58 L94 90 Q94 95.8 89.9 99.9" fill="none" stroke="#f0c464" stroke-width="5.5" stroke-linecap="round"/>
    <path d="M90.5 47.5 L109.6 28.4" stroke="#f0c464" stroke-width="5.5" stroke-linecap="round"/>
    <path d="M48 30 L92 30" stroke="#f0c464" stroke-width="9" stroke-linecap="round"/>
    <g clip-path="url(#fvB)">
      <g transform="rotate(14 68 30)"><rect x="56" y="-2" width="24" height="32" rx="4" fill="#f0c464" stroke="#150d08" stroke-width="4"/></g>
      <g transform="rotate(20 82 28)"><rect x="70" y="-4" width="24" height="32" rx="4" fill="#f0c464" stroke="#150d08" stroke-width="4"/></g>
    </g>
    <path d="M40 38 L84 38" stroke="#f0c464" stroke-width="9" stroke-linecap="round"/>
    <g clip-path="url(#fvF)">
      <g transform="rotate(8 58 39)"><rect x="46" y="7" width="24" height="32" rx="4" fill="#f0c464" stroke="#150d08" stroke-width="4"/></g>
    </g>
  </g>
</svg>
